<?xml version="1.0" encoding="utf-8"?>
<!-- Generated by Mocodo 4.3.2 -->
<svg width="391" height="262" viewBox="0 0 391 262" xmlns="http://www.w3.org/2000/svg">
<rect x="0" y="0" width="391" height="262" fill="#f7f7f7" stroke="none" stroke-width="0"/>

<!-- Association COME_FROM -->
<g>
	<line x1="67" y1="81" x2="205" y2="81" stroke="#5aae61" stroke-width="1"/>
	<line x1="340" y1="81" x2="205" y2="81" stroke="#5aae61" stroke-width="1"/>
	<g>
		<path d="M255 52 a14 14 90 0 1 14 14 V80 h-128 V66 a14 14 90 0 1 14 -14" fill="#a6dba0" stroke="#a6dba0" stroke-width="0"/>
		<path d="M269 80 v16 a14 14 90 0 1 -14 14 H155 a14 14 90 0 1 -14 -14 V80 H128" fill="#d9f0d3" stroke="#d9f0d3" stroke-width="0"/>
		<rect x="141" y="52" width="128" height="58" fill="none" rx="14" stroke="#5aae61" stroke-width="1.5"/>
		<line x1="141" y1="80" x2="269" y2="80" stroke="#5aae61" stroke-width="1.5"/>
		<text x="149" y="73.3" fill="#000000" font-family="Copperplate" font-size="18">COME FROM</text>
	</g>
	<text x="117" y="73" fill="#762a83" font-family="Futura" font-size="11">1,1</text>
	<text x="274" y="97" fill="#762a83" font-family="Futura" font-size="11">0,N</text>
</g>

<!-- Association HAVE -->
<g>
	<line x1="67" y1="81" x2="205" y2="215" stroke="#5aae61" stroke-width="1"/>
	<line x1="67" y1="215" x2="205" y2="215" stroke="#5aae61" stroke-width="1"/>
	<g>
		<path d="M224 186 a14 14 90 0 1 14 14 V214 h-66 V200 a14 14 90 0 1 14 -14" fill="#a6dba0" stroke="#a6dba0" stroke-width="0"/>
		<path d="M238 214 v16 a14 14 90 0 1 -14 14 H186 a14 14 90 0 1 -14 -14 V214 H66" fill="#d9f0d3" stroke="#d9f0d3" stroke-width="0"/>
		<rect x="172" y="186" width="66" height="58" fill="none" rx="14" stroke="#5aae61" stroke-width="1.5"/>
		<line x1="172" y1="214" x2="238" y2="214" stroke="#5aae61" stroke-width="1.5"/>
		<text x="180" y="207.3" fill="#000000" font-family="Copperplate" font-size="18">HAVE</text>
	</g>
	<text x="117" y="123.62" fill="#762a83" font-family="Futura" font-size="11">1,N</text>
	<text x="130" y="231" fill="#762a83" font-family="Futura" font-size="11">0,N</text>
</g>

<!-- Entity COFFEE -->
<g>
	<g>
		<rect x="22" y="9" width="90" height="30" fill="#c2a5cf" stroke="none" stroke-width="0" opacity="1"/>
		<rect x="22" y="39" width="90" height="114" fill="#e7d4e8" stroke="none" stroke-width="0" opacity="1"/>
		<rect x="22" y="9" width="90" height="144" fill="none" stroke="#9970ab" stroke-width="1.5" opacity="1"/>
		<line x1="22" y1="39" x2="112" y2="39" stroke="#9970ab" stroke-width="1.5"/>
	</g>
	<text x="30" y="30.3" fill="#000000" font-family="Copperplate" font-size="18">COFFEE</text>
	<text x="30" y="56.1" fill="#000000" font-family="Gill Sans" font-size="15">id</text>
	<text x="30" y="73.1" fill="#000000" font-family="Gill Sans" font-size="15">name</text>
	<text x="30" y="90.1" fill="#000000" font-family="Gill Sans" font-size="15">reference</text>
	<line x1="30" y1="93" x2="91" y2="93" stroke="#000000" stroke-width="1"/>
	<text x="30" y="107.1" fill="#000000" font-family="Gill Sans" font-size="15">description</text>
	<text x="30" y="124" fill="#000000" font-family="Gill Sans" font-size="15">price</text>
	<text x="30" y="141" fill="#000000" font-family="Gill Sans" font-size="15">availability</text>
</g>

<!-- Entity ORIGIN -->
<g>
	<g>
		<rect x="298" y="43" width="84" height="30" fill="#c2a5cf" stroke="none" stroke-width="0" opacity="1"/>
		<rect x="298" y="73" width="84" height="46" fill="#e7d4e8" stroke="none" stroke-width="0" opacity="1"/>
		<rect x="298" y="43" width="84" height="76" fill="none" stroke="#9970ab" stroke-width="1.5" opacity="1"/>
		<line x1="298" y1="73" x2="382" y2="73" stroke="#9970ab" stroke-width="1.5"/>
	</g>
	<text x="307" y="64.3" fill="#000000" font-family="Copperplate" font-size="18">ORIGIN</text>
	<text x="306" y="90.1" fill="#000000" font-family="Gill Sans" font-size="15">id</text>
	<line x1="306" y1="93" x2="318" y2="93" stroke="#000000" stroke-width="1"/>
	<text x="306" y="107.1" fill="#000000" font-family="Gill Sans" font-size="15">country</text>
</g>

<!-- Entity CATEGORY -->
<g>
	<g>
		<rect x="9" y="177" width="116" height="30" fill="#c2a5cf" stroke="none" stroke-width="0" opacity="1"/>
		<rect x="9" y="207" width="116" height="46" fill="#e7d4e8" stroke="none" stroke-width="0" opacity="1"/>
		<rect x="9" y="177" width="116" height="76" fill="none" stroke="#9970ab" stroke-width="1.5" opacity="1"/>
		<line x1="9" y1="207" x2="125" y2="207" stroke="#9970ab" stroke-width="1.5"/>
	</g>
	<text x="17" y="198.3" fill="#000000" font-family="Copperplate" font-size="18">CATEGORY</text>
	<text x="17" y="224.1" fill="#000000" font-family="Gill Sans" font-size="15">id</text>
	<line x1="17" y1="227" x2="29" y2="227" stroke="#000000" stroke-width="1"/>
	<text x="17" y="241.1" fill="#000000" font-family="Gill Sans" font-size="15">wording</text>
</g>
</svg>